<?xml version="1.0" encoding="UTF-8" standalone="no"?>
<svg
   xmlns:dc="http://purl.org/dc/elements/1.1/"
   xmlns:cc="http://creativecommons.org/ns#"
   xmlns:rdf="http://www.w3.org/1999/02/22-rdf-syntax-ns#"
   xmlns:svg="http://www.w3.org/2000/svg"
   xmlns="http://www.w3.org/2000/svg"
   xmlns:sodipodi="http://sodipodi.sourceforge.net/DTD/sodipodi-0.dtd"
   xmlns:inkscape="http://www.inkscape.org/namespaces/inkscape"
   version="1.1"
   x="0px"
   y="0px"
   viewBox="0 0 90.572044 67.796608"
   enable-background="new 0 0 100 100"
   xml:space="preserve"
   id="svg28"
   sodipodi:docname="noun_cooking_36861.svg"
   inkscape:version="0.92.3 (2405546, 2018-03-11)"
   width="90.572044"
   height="67.796608"><metadata
     id="metadata34"><rdf:RDF><cc:Work
         rdf:about=""><dc:format>image/svg+xml</dc:format><dc:type
           rdf:resource="http://purl.org/dc/dcmitype/StillImage" /></cc:Work></rdf:RDF></metadata><defs
     id="defs32" /><sodipodi:namedview
     pagecolor="#ffffff"
     bordercolor="#666666"
     borderopacity="1"
     objecttolerance="10"
     gridtolerance="10"
     guidetolerance="10"
     inkscape:pageopacity="0"
     inkscape:pageshadow="2"
     inkscape:window-width="1090"
     inkscape:window-height="536"
     id="namedview30"
     showgrid="false"
     inkscape:zoom="1.888"
     inkscape:cx="50"
     inkscape:cy="22.24576"
     inkscape:window-x="0"
     inkscape:window-y="28"
     inkscape:window-maximized="0"
     inkscape:current-layer="svg28" /><g
     id="g22"
     transform="translate(-5.2966104,-16.949152)"
     style="fill:#2a2aff"><path
       d="m 30.161,37.281 c 0,0.663 0.537,1.202 1.201,1.202 0.665,0 1.202,-0.539 1.202,-1.202 0,-1.7 0.636,-2.49 1.439,-3.491 0.874,-1.092 1.966,-2.452 1.966,-4.996 0,-2.544 -1.092,-3.904 -1.966,-4.997 -0.804,-1.001 -1.439,-1.792 -1.439,-3.491 0,-0.664 -0.537,-1.202 -1.202,-1.202 -0.664,0 -1.201,0.538 -1.201,1.202 0,2.544 1.092,3.904 1.966,4.996 0.804,1.001 1.439,1.792 1.439,3.492 0,1.699 -0.636,2.49 -1.439,3.491 -0.874,1.091 -1.966,2.451 -1.966,4.996 z"
       id="path2"
       inkscape:connector-curvature="0"
       style="fill:#2a2aff" /><path
       d="m 48.713,37.281 c 0,0.663 0.538,1.202 1.201,1.202 0.665,0 1.202,-0.539 1.202,-1.202 0,-1.7 0.636,-2.49 1.438,-3.491 0.876,-1.092 1.968,-2.452 1.968,-4.996 0,-2.544 -1.092,-3.904 -1.968,-4.997 -0.803,-1.001 -1.438,-1.792 -1.438,-3.491 0,-0.664 -0.537,-1.202 -1.202,-1.202 -0.663,0 -1.201,0.538 -1.201,1.202 0,2.544 1.092,3.904 1.968,4.996 0.804,1.001 1.438,1.792 1.438,3.492 0,1.699 -0.634,2.49 -1.438,3.491 -0.876,1.091 -1.968,2.451 -1.968,4.996 z"
       id="path4"
       inkscape:connector-curvature="0"
       style="fill:#2a2aff" /><path
       d="m 67.265,37.281 c 0,0.663 0.538,1.202 1.203,1.202 0.663,0 1.201,-0.539 1.201,-1.202 0,-1.7 0.635,-2.49 1.438,-3.491 0.876,-1.092 1.966,-2.452 1.966,-4.996 0,-2.544 -1.09,-3.904 -1.966,-4.997 -0.804,-1.001 -1.438,-1.792 -1.438,-3.491 0,-0.664 -0.538,-1.202 -1.201,-1.202 -0.665,0 -1.203,0.538 -1.203,1.202 0,2.544 1.092,3.904 1.968,4.996 0.804,1.001 1.438,1.792 1.438,3.492 0,1.699 -0.635,2.49 -1.438,3.491 -0.877,1.091 -1.968,2.451 -1.968,4.996 z"
       id="path6"
       inkscape:connector-curvature="0"
       style="fill:#2a2aff" /><path
       d="m 38.433,73.288 c 0,-1.236 -2.238,-4.75 -2.238,-4.75 0,0 -2.238,3.515 -2.238,4.75 0,1.237 1.001,2.24 2.238,2.24 1.237,0 2.238,-1.003 2.238,-2.24 z"
       id="path8"
       inkscape:connector-curvature="0"
       style="fill:#2a2aff" /><path
       d="m 46.117,72.719 c 0,-1.55 -2.807,-5.96 -2.807,-5.96 0,0 -2.808,4.41 -2.808,5.96 0,1.551 1.256,2.809 2.808,2.809 1.551,0 2.807,-1.258 2.807,-2.809 z"
       id="path10"
       inkscape:connector-curvature="0"
       style="fill:#2a2aff" /><path
       d="m 52.664,73.288 c 0,-1.236 -2.238,-4.75 -2.238,-4.75 0,0 -2.237,3.515 -2.237,4.75 0,1.237 1,2.24 2.237,2.24 1.237,0 2.238,-1.003 2.238,-2.24 z"
       id="path12"
       inkscape:connector-curvature="0"
       style="fill:#2a2aff" /><path
       d="m 60.349,72.719 c 0,-1.55 -2.807,-5.96 -2.807,-5.96 0,0 -2.808,4.41 -2.808,5.96 0,1.551 1.257,2.809 2.808,2.809 1.551,0 2.807,-1.258 2.807,-2.809 z"
       id="path14"
       inkscape:connector-curvature="0"
       style="fill:#2a2aff" /><path
       d="m 66.896,73.288 c 0,-1.236 -2.238,-4.75 -2.238,-4.75 0,0 -2.236,3.515 -2.236,4.75 0,1.237 1.001,2.24 2.236,2.24 1.237,0 2.238,-1.003 2.238,-2.24 z"
       id="path16"
       inkscape:connector-curvature="0"
       style="fill:#2a2aff" /><path
       d="M 69.104,77.701 H 31.467 c -0.882,0 -1.596,0.717 -1.596,1.599 0,0.882 0.714,1.597 1.596,1.597 h 37.638 c 0.884,0 1.598,-0.715 1.598,-1.597 0,-0.882 -0.715,-1.599 -1.599,-1.599 z"
       id="path18"
       inkscape:connector-curvature="0"
       style="fill:#2a2aff" /><path
       d="m 89.045,46.885 -2.23,0.913 c 0.001,-0.075 0.012,-0.147 0.012,-0.222 l 0.009,-0.302 c 1.213,0 2.194,-0.979 2.194,-2.188 0,-1.215 -0.981,-2.192 -2.188,-2.194 H 86.56 L 86.755,42.821 50,42.854 13.245,42.818 c -0.614,-10e-4 -1.169,0.252 -1.568,0.661 -0.432,0.4 -0.706,0.967 -0.706,1.605 0,1.209 0.981,2.188 2.194,2.188 l 0.009,0.302 c 0,0.075 0.011,0.147 0.012,0.222 l -2.229,-0.913 c -1.553,-0.634 -3.324,0.109 -3.958,1.661 -0.636,1.552 0.108,3.323 1.659,3.958 l 2.941,1.204 3.025,1.237 c 0.259,0.12 0.479,0.309 0.635,0.545 l 0.006,0.004 c 2.782,4.941 8.065,8.287 14.14,8.283 l 0.116,-0.043 41.075,0.043 c 6.074,0.004 11.357,-3.341 14.14,-8.283 l 0.007,-0.004 c 0.155,-0.236 0.375,-0.425 0.634,-0.545 l 3.025,-1.237 2.941,-1.204 c 1.551,-0.635 2.295,-2.406 1.659,-3.958 -0.634,-1.55 -2.405,-2.293 -3.957,-1.659 z"
       id="path20"
       inkscape:connector-curvature="0"
       style="fill:#2a2aff" /></g><rect
     style="opacity:1;fill:none;fill-opacity:1;fill-rule:evenodd;stroke:none;stroke-width:0.24936284;stroke-linecap:square;stroke-linejoin:round;stroke-miterlimit:4;stroke-dasharray:none;stroke-opacity:1;paint-order:fill markers stroke"
     id="rect841"
     width="90.572044"
     height="67.796608"
     x="0"
     y="0" /></svg>